<svg xmlns="http://www.w3.org/2000/svg" id="icon-colored-caare" class="icon multicolor" viewBox="0 0 45.894 50" width="24" height="24">
<style>
.theme-color-1 {
    fill: #F7AB53;
}
.theme-color-2 {
    fill: #CA1F48;
}
</style>
        <g class="theme-color-1">
            <polygon points="36.367,44.455 32.645,50 41.818,50 41.31,45.694 42.917,43.671 45.371,40.581 34.586,42.335    34.658,42.421  "></polygon>
            <polygon points="14.151,35.201 8.341,35.445 8.222,35.887 14.64,37.663  "></polygon>
            <polygon points="17.082,49.966 16.086,44.946 5.419,46.244 4.417,49.948  "></polygon>
            <path d="M24.324,13.188L21.473,0.425c-1.668,0.201-3.844,0.544-5.051,0.806c-1.441,0.313-4.529,0.83-7.81,2.52   l3.855,13.159c1.934-2.291,9.847-3.412,13.586-3.948C25.595,13.017,25.024,13.091,24.324,13.188"></path>
            <polygon points="29.126,25.626 15.296,26.112 18.681,37.762 29.475,36.809  "></polygon>
            <path d="M9.706,26.305c0-0.223,0.038-4.508,2.518-9.046c0.066-0.119,0.148-0.235,0.243-0.349L8.612,3.751   C6.037,5.076,3.597,7.213,2.094,9.863c-1.583,2.792-2.38,8.125-2.001,12.925c0.099,1.258,0.268,2.415,0.498,3.478   c0.028,0.129,0.116,0.508,0.131,0.571L9.706,26.305z"></path>
        </g>
        <g class="theme-color-2">
            <path d="M45.377,40.572l0.517-12.185c0,0,0.003-0.691-0.55-0.823c-0.692-0.164-0.878,0.3-0.878,0.3l-1.106,7.37   l-0.639-0.097l0.557-8.225c0,0-0.045-0.725-0.601-0.83c-0.675-0.129-1.086,0.485-1.086,0.485l-0.811,8.141l-0.647-0.049   l-0.071-8.504c0,0-0.169-0.75-0.811-0.714c-0.642,0.037-0.829,0.627-0.829,0.627l0.104,8.521l-0.678,0.07l-0.758-7.772   c0,0-0.186-1.007-1.063-0.86c-0.879,0.146-0.787,1.204-0.787,1.204l1.402,12.971l-1.152,0.203l-1.879-7.799   c0,0-0.454-0.744-1.366-0.525c-0.911,0.22-0.939,1.022-0.939,1.022l0.682,6.136l2.599,3.094l10.785-1.754L45.377,40.572z"></path>
            <path d="M26.755,0c0,0-2.639,0.107-5.282,0.425l2.851,12.763c0.7-0.097,1.271-0.171,1.729-0.226   c1.163-0.141,1.813-0.208,1.813-0.208L26.755,0z"></path>
            <path d="M15.6,37.969c0.666-0.016,1.266-0.054,1.88-0.103c0.517-0.041,1.2-0.105,1.2-0.105l-3.385-11.649l-5.59,0.193   l-8.984,0.532c1.3,5.322,4.171,8.182,7.288,9.665l-2.602,9.743l0.011-0.001l10.666-1.298l0.002,0l-1.312-6.973   C15.058,37.977,15.334,37.976,15.6,37.969"></path>
            <path d="M24.631,33.554c-2.016,0.093-4.947-0.208-4.947-0.208l0.005-2.852c0,0,3.026,0.154,4.483,0.154   c1.457,0,5.098-0.42,5.098-0.42l0.085,2.717C29.355,32.944,26.647,33.461,24.631,33.554"></path>
            <path d="M17.115,10.42c1.658-0.147,2.916-1.506,2.811-3.035c-0.103-1.529-1.532-2.65-3.189-2.501   c-1.657,0.148-2.916,1.507-2.812,3.035C14.03,9.448,15.458,10.568,17.115,10.42"></path>
            <path d="M0.684,13.825l10.058,6.855c0,0,0.737-2.196,1.437-3.265c0.531-0.811,1.231-1.286,1.644-1.518   c0.209-0.117,0.347-0.18,0.347-0.18L9.621,3.267c0,0-1.643,0.635-3.551,2.089C5.034,6.146,3.921,7.2,2.949,8.471   C1.298,10.631,0.684,13.825,0.684,13.825"></path>
        </g>
    </svg>